<svg width="76" height="33" viewBox="0 0 76 33" fill="none" xmlns="http://www.w3.org/2000/svg">
<path d="M12.7125 32.6105C8.93295 32.6105 5.9384 31.5639 3.72882 29.4706C1.51925 27.3483 0.414463 24.3246 0.414463 20.3997V13.0733C0.414463 9.14836 1.51925 6.13927 3.72882 4.04599C5.9384 1.92363 8.93295 0.862458 12.7125 0.862458C16.4629 0.862458 19.3557 1.89456 21.3909 3.95877C23.4551 5.9939 24.4872 8.79948 24.4872 12.3755V12.6372H18.8179V12.2011C18.8179 10.3985 18.3091 8.91577 17.2915 7.75284C16.303 6.58991 14.7767 6.00844 12.7125 6.00844C10.6774 6.00844 9.07832 6.63352 7.91538 7.88367C6.75245 9.13382 6.17098 10.8346 6.17098 12.986V20.487C6.17098 22.6093 6.75245 24.3101 7.91538 25.5893C9.07832 26.8395 10.6774 27.4646 12.7125 27.4646C14.7767 27.4646 16.303 26.8831 17.2915 25.7202C18.3091 24.5282 18.8179 23.0454 18.8179 21.2719V20.487H24.4872V21.0975C24.4872 24.6735 23.4551 27.4936 21.3909 29.5578C19.3557 31.593 16.4629 32.6105 12.7125 32.6105ZM29.1776 32V1.473H48.8021V6.7062H34.9342V13.9891H47.5811V19.2223H34.9342V26.7668H49.0638V32H29.1776ZM53.325 32V1.473H65.8847C67.8035 1.473 69.4898 1.86549 70.9434 2.65047C72.4262 3.40638 73.5746 4.48209 74.3886 5.87761C75.2317 7.27313 75.6533 8.93031 75.6533 10.8491V11.4597C75.6533 13.3495 75.2172 15.0066 74.345 16.4312C73.5019 17.8267 72.3389 18.917 70.8562 19.702C69.4025 20.4579 67.7454 20.8358 65.8847 20.8358H59.0815V32H53.325ZM59.0815 15.6026H65.3177C66.6842 15.6026 67.789 15.2247 68.6321 14.4688C69.4752 13.7129 69.8968 12.6808 69.8968 11.3725V10.9364C69.8968 9.62807 69.4752 8.59597 68.6321 7.84006C67.789 7.08415 66.6842 6.7062 65.3177 6.7062H59.0815V15.6026Z" fill="#3B82F6"/>
</svg>